# xmcd
#
# Track frame offsets: 
#        150
#        12327
#        21987
#        39094
#        50885
#        59993
#        72082
#        85616
#        101013
#        113650
#        126276
#        138357
#        154631
#        182067
#        200934
#
# Disc length: 2858 seconds
#
# Revision: 0
# Processed by: cddbd v1.5.2PL0 Copyright (c) Steve Scherf et al.
# Submitted via: ExactAudioCopy v0.99pb5
#
DISCID=d50b280f
DTITLE=The Challenge - Our Passion
DYEAR=2003
DGENRE=bluegras
TTITLE0=Sophronie
TTITLE1=How Mountain Girls Can Love
TTITLE2=Mary Ann
TTITLE3=Katy Daly
TTITLE4=Frosty Morn
TTITLE5=Talkin To Myself
TTITLE6=Rock Top
TTITLE7=When You Go Walking After Midnight
TTITLE8=Two Different Worlds
TTITLE9=Little Birdie
TTITLE10=Cuckoo Bird
TTITLE11=When My Blue Moon Turns To Gold Again
TTITLE12=Erase The Miles
TTITLE13=Raining in L.A.
TTITLE14=Snowflakes In The Wind
EXTD=
EXTT0=
EXTT1=
EXTT2=
EXTT3=
EXTT4=
EXTT5=
EXTT6=
EXTT7=
EXTT8=
EXTT9=
EXTT10=
EXTT11=
EXTT12=
EXTT13=
EXTT14=
PLAYORDER=
